<svg width="1432" height="304" viewBox="0 0 1432 304" fill="none" xmlns="http://www.w3.org/2000/svg">
<g filter="url(#filter0_d)">
<path d="M-2 208L57.75 186.7C117.5 165 237 123 356.5 112C476 101 595.5 123 715 133.3C834.5 144 954 144 1073.5 122.7C1193 101 1312.5 59 1372.25 37.3L1432 16V304H1372.25C1312.5 304 1193 304 1073.5 304C954 304 834.5 304 715 304C595.5 304 476 304 356.5 304C237 304 117.5 304 57.75 304H-2V208Z" fill="#2D9CDB"/>
</g>
<defs>
<filter id="filter0_d" x="-12" y="0" width="1474" height="328" filterUnits="userSpaceOnUse" color-interpolation-filters="sRGB">
<feFlood flood-opacity="0" result="BackgroundImageFix"/>
<feColorMatrix in="SourceAlpha" type="matrix" values="0 0 0 0 0 0 0 0 0 0 0 0 0 0 0 0 0 0 127 0"/>
<feOffset dx="10" dy="4"/>
<feGaussianBlur stdDeviation="10"/>
<feColorMatrix type="matrix" values="0 0 0 0 0 0 0 0 0 0 0 0 0 0 0 0 0 0 0.5 0"/>
<feBlend mode="normal" in2="BackgroundImageFix" result="effect1_dropShadow"/>
<feBlend mode="normal" in="SourceGraphic" in2="effect1_dropShadow" result="shape"/>
</filter>
</defs>
</svg>
