<svg width="33" height="33" viewBox="0 0 33 33" fill="none" xmlns="http://www.w3.org/2000/svg">
<path d="M18.0129 28.2679V5.26794C18.0129 5.00273 17.9076 4.74837 17.72 4.56084C17.5325 4.3733 17.2782 4.26794 17.0129 4.26794H5.01294C4.74772 4.26794 4.49337 4.3733 4.30583 4.56084C4.1183 4.74837 4.01294 5.00273 4.01294 5.26794V28.2679" stroke="#2D9CDB" stroke-width="2" stroke-linecap="round" stroke-linejoin="round"/>
<path d="M28.0129 28.2679V13.2679C28.0129 13.0027 27.9076 12.7484 27.72 12.5608C27.5325 12.3733 27.2782 12.2679 27.0129 12.2679H18.0129" stroke="#2D9CDB" stroke-width="2" stroke-linecap="round" stroke-linejoin="round"/>
<path d="M8.01294 9.26794H12.0129" stroke="#2D9CDB" stroke-width="2" stroke-linecap="round" stroke-linejoin="round"/>
<path d="M10.0129 19.2679H14.0129" stroke="#2D9CDB" stroke-width="2" stroke-linecap="round" stroke-linejoin="round"/>
<path d="M8.01294 24.2679H12.0129" stroke="#2D9CDB" stroke-width="2" stroke-linecap="round" stroke-linejoin="round"/>
<path d="M22.0129 22.2679H24.0129" stroke="#2D9CDB" stroke-width="2" stroke-linecap="round" stroke-linejoin="round"/>
<path d="M22.0129 17.2679H24.0129" stroke="#2D9CDB" stroke-width="2" stroke-linecap="round" stroke-linejoin="round"/>
<path d="M0.0136719 0.27002V-0.72998H-0.986328V0.27002H0.0136719ZM32.0137 0.27002H33.0137V-0.72998H32.0137V0.27002ZM32.0137 32.27V33.27H33.0137V32.27H32.0137ZM0.0136719 32.27H-0.986328V33.27H0.0136719V32.27ZM0.0136719 1.27002H32.0137V-0.72998H0.0136719V1.27002ZM31.0137 0.27002V32.27H33.0137V0.27002H31.0137ZM32.0137 31.27H0.0136719V33.27H32.0137V31.27ZM1.01367 32.27V0.27002H-0.986328V32.27H1.01367Z" fill="white"/>
</svg>
